PathFileType	4	(X/Y/Z)	C:/Users/opensim2020/Desktop/walking_exp_matlab/subject06_walking12_straigt_03.trc																																																																																																																																														
DataRate	CameraRate	NumFrames	NumMarkers	Units	OrigDataRate	OrigDataStartFrame	OrigNumFrames																																																																																																																																										
100	100	6	48	mm	100	2118	184																																																																																																																																										
Frame#	Time	LFHD			RFHD			LBHD			RBHD			C7			T10			CLAV			STRN			RBAK			LSHO			LUPA			LELB			LFRM			LWRA			LWRB			LFIN			RSHO			RUPA			RELB			RFRM			RWRA			RWRB			RFIN			LASI			RASI			LPSI			RPSI			LTHI			LKNE			LTIB			LANK			LHEE			LTOE			RTHI			RKNE			RTIB			RANK			RHEE			RTOE			*39			*40			*41			*42			*43			*44			*45			*46			*47		
		X1	Y1	Z1	X2	Y2	Z2	X3	Y3	Z3	X4	Y4	Z4	X5	Y5	Z5	X6	Y6	Z6	X7	Y7	Z7	X8	Y8	Z8	X9	Y9	Z9	X10	Y10	Z10	X11	Y11	Z11	X12	Y12	Z12	X13	Y13	Z13	X14	Y14	Z14	X15	Y15	Z15	X16	Y16	Z16	X17	Y17	Z17	X18	Y18	Z18	X19	Y19	Z19	X20	Y20	Z20	X21	Y21	Z21	X22	Y22	Z22	X23	Y23	Z23	X24	Y24	Z24	X25	Y25	Z25	X26	Y26	Z26	X27	Y27	Z27	X28	Y28	Z28	X29	Y29	Z29	X30	Y30	Z30	X31	Y31	Z31	X32	Y32	Z32	X33	Y33	Z33	X34	Y34	Z34	X35	Y35	Z35	X36	Y36	Z36	X37	Y37	Z37	X38	Y38	Z38	X39	Y39	Z39	X40	Y40	Z40	X41	Y41	Z41	X42	Y42	Z42	X43	Y43	Z43	X44	Y44	Z44	X45	Y45	Z45	X46	Y46	Z46	X47	Y47	Z47	X48	Y48	Z48
																																																																																																																																																	
47	0.46	-1030.8645	1670.35803	322.25275	-900.17603	1653.50464	329.73065	-1041.18738	1617.55017	455.55774	-912.46967	1606.43604	461.40057	-985.15381	1456.19727	460.82825	-980.78955	1127.14905	494.91321	-988.08667	1377.51355	351.18533	-1000.28973	1202.44409	311.79282	-905.22937	1284.11609	530.87305	-1147.91174	1412.88708	411.09995	-1216.91614	1209.18176	404.90396	-1226.28699	1095.98474	399.28888	-1249.25427	956.61572	342.79865	-1213.46143	866.13013	248.10963	-1242.9812	842.00116	308.76834	-1248.42444	778.0285	244.34981	-824.72296	1408.08105	390.83911	-737.76147	1211.229	436.74026	-727.05304	1088.71838	434.05432	-711.91882	968.69403	421.68307	-745.92511	828.93506	365.72815	-705.50366	830.71832	419.83884	-704.91486	754.1947	384.20898	-1094.0282	960.94006	324.75693	-874.599	975.75323	313.95804	-1060.20642	990.21075	479.87088	-892.80371	1002.08813	466.79282	-1151.11096	641.77301	380.29221	-1138.41821	479.89838	360.91537	-1120.57605	331.1618	553.73871	-1078.90271	222.81464	685.73804	-1027.32434	241.35497	714.5238	-1091.85864	86.66717	633.13605	-808.99597	643.8844	352.30283	-833.61169	519.75757	337.97318	-833.78571	253.15111	369.10825	-881.62799	66.32697	370.78198	-927.87103	42.11937	408.30588	-882.77405	35.00441	216.84779	-975.91577	1707.22595	425.189	NaN	NaN	NaN	NaN	NaN	NaN	NaN	NaN	NaN	NaN	NaN	NaN	NaN	NaN	NaN	NaN	NaN	NaN	NaN	NaN	NaN	NaN	NaN	NaN
48	0.47	-1030.86084	1671.01184	313.06882	-900.16479	1654.38855	320.2605	-1040.92627	1618.03467	446.31317	-912.1524	1607.10742	451.89166	-984.36499	1456.92041	451.19946	-979.36176	1127.86365	485.84171	-987.52209	1378.11438	341.77966	-999.48157	1202.83069	302.93491	-903.54187	1285.34387	521.3667	-1147.27429	1413.07373	402.28992	-1215.85583	1209.0177	398.64349	-1224.84778	1095.69531	394.7135	-1248.13464	954.67889	342.62881	-1213.27881	860.91974	250.79654	-1241.90979	838.80463	312.38287	-1248.36218	772.8457	250.56937	-824.12653	1408.96765	380.56473	-736.44568	1211.96826	424.50452	-725.31702	1089.55164	420.7511	-710.12408	969.80865	406.39783	-744.60364	831.1521	348.27725	-703.98108	831.85358	401.51605	-703.23395	756.16272	364.94949	-1093.05334	962.20148	315.19928	-873.38068	976.09912	305.3837	-1059.35559	990.96527	470.76993	-891.737	1002.64746	458.1673	-1150.91309	643.19745	366.53845	-1137.80066	481.82974	343.3309	-1119.58203	331.49048	534.21094	-1077.41248	222.11595	665.28601	-1025.99512	240.28812	694.95081	-1089.93103	87.26002	609.83508	-808.21429	643.82983	345.42819	-833.52777	519.37677	333.47668	-834.08765	253.3195	368.00006	-881.94275	66.46999	370.62305	-928.17603	42.1726	408.22278	-882.9303	34.90377	216.86598	-975.83069	1707.81152	415.87714	NaN	NaN	NaN	NaN	NaN	NaN	NaN	NaN	NaN	NaN	NaN	NaN	NaN	NaN	NaN	NaN	NaN	NaN	NaN	NaN	NaN	NaN	NaN	NaN
49	0.48	-1030.81152	1671.5365	303.79941	-900.1579	1655.13489	310.72223	-1040.65576	1618.42664	436.94342	-911.85303	1607.64978	442.36151	-983.61945	1457.58313	441.75983	-977.98132	1128.73474	476.76892	-987.12097	1378.57581	332.34955	-998.5733	1203.4198	293.60834	-901.98944	1286.48157	511.85229	-1146.7511	1413.3335	393.43616	-1214.87317	1208.94568	392.32306	-1223.52002	1095.53516	390.25449	-1247.20422	952.93243	342.96439	-1213.3783	856.41809	252.99487	-1240.85608	836.18073	316.3717	-1248.31445	768.16028	256.92728	-823.62946	1409.89282	370.42944	-735.20508	1212.70618	412.39767	-723.69745	1090.44446	407.55084	-708.44537	971.04596	391.09637	-743.19635	833.39307	330.34998	-702.16693	833.28516	383.53906	-701.63403	758.31476	345.50549	-1091.77881	963.26508	305.83267	-872.13916	976.36505	296.8067	-1058.47437	991.76862	461.77545	-890.88477	1003.03229	449.33826	-1149.80078	644.53857	351.89276	-1137.01648	483.77365	325.85434	-1118.49036	331.06854	514.41418	-1076.07947	220.23535	644.28949	-1024.84692	237.91058	674.83844	-1087.77856	87.42358	585.1004	-808.05414	643.68829	339.29977	-833.23407	519.06024	328.93347	-834.36151	253.36143	366.4339	-882.31091	66.59379	370.43561	-928.54297	42.20337	408.03598	-883.01941	34.82393	216.89645	-975.76752	1708.34082	406.61191	NaN	NaN	NaN	NaN	NaN	NaN	NaN	NaN	NaN	NaN	NaN	NaN	NaN	NaN	NaN	NaN	NaN	NaN	NaN	NaN	NaN	NaN	NaN	NaN
50	0.49	-1030.93225	1672.02234	294.51541	-900.23151	1655.77832	301.19708	-1040.45276	1618.75415	427.63513	-911.70813	1608.26318	432.82648	-983.00726	1458.12512	432.19022	-976.67175	1129.4104	467.71838	-986.74548	1379.00049	322.91312	-997.77185	1203.75806	284.5853	-900.57513	1287.48291	502.16974	-1146.20679	1413.474	384.54611	-1213.94373	1208.89063	386.20544	-1222.46216	1095.44617	385.7605	-1246.09302	951.55859	342.77316	-1212.77844	851.62067	256.80267	-1239.91711	834.08911	320.60971	-1248.24109	764.0639	263.41394	-823.21808	1410.75635	360.40314	-734.09076	1213.51672	400.3425	-722.1441	1091.3595	394.40588	-706.84283	972.341	375.86304	-742.10846	835.94354	313.17966	-700.258	835.04022	365.8049	-700.08594	760.65839	326.12546	-1090.50793	964.25287	296.72235	-870.73279	976.49335	288.36716	-1057.72656	992.57861	452.80579	-890.07501	1003.34808	440.74179	-1149.24609	646.00391	337.90195	-1136.20386	485.84622	308.57208	-1117.29028	329.87744	494.12729	-1074.85413	217.2493	622.56903	-1023.73883	234.28027	654.08252	-1085.84607	86.6657	559.349	-807.93774	643.56097	333.29797	-833.02277	518.72076	324.28253	-834.55579	253.38181	364.69345	-882.63129	66.72103	370.24408	-928.86823	42.32734	407.99741	-883.05914	34.70102	216.91736	-975.74799	1708.80994	397.20703	NaN	NaN	NaN	NaN	NaN	NaN	NaN	NaN	NaN	NaN	NaN	NaN	NaN	NaN	NaN	NaN	NaN	NaN	NaN	NaN	NaN	NaN	NaN	NaN
51	0.5	-1031.08337	1672.3335	285.09958	-900.33722	1656.35034	291.6402	-1040.29346	1619.01892	418.23984	-911.43201	1608.69287	423.30862	-982.4455	1458.59619	422.74487	-975.42963	1129.94336	458.79706	-986.32886	1379.39941	313.54773	-996.93481	1204.00098	275.48694	-899.35602	1288.26196	492.67746	-1145.75879	1413.63208	375.68207	-1213.08801	1208.86755	379.99557	-1221.25452	1095.50647	381.49042	-1245.15515	950.34943	343.04285	-1212.4563	847.5249	259.98962	-1239.0874	832.06635	324.54495	-1248.00732	760.29926	269.94467	-822.88861	1411.5813	350.51288	-733.02264	1214.26489	388.4884	-720.64252	1092.29333	381.31952	-705.31708	973.70197	360.66199	-740.86707	838.539	295.5976	-698.91809	836.46625	347.77756	-698.62573	763.16937	306.7764	-1089.20642	965.13654	287.54315	-869.49121	976.54987	279.8963	-1057.05701	993.22998	443.7962	-889.21954	1003.62286	432.255	-1148.78589	647.48627	324.01535	-1135.35901	487.93179	291.50095	-1116.61584	328.58789	474.31082	-1073.70789	213.21613	600.14667	-1022.79095	229.45267	632.63751	-1084.23938	85.07469	532.68542	-807.9137	643.3551	327.67349	-832.67755	518.36469	319.45352	-834.68744	253.41431	362.7934	-882.93152	66.80994	370.10504	-928.99701	42.60164	408.25436	-882.99689	34.57692	216.95956	-975.83197	1709.24768	387.78561	NaN	NaN	NaN	NaN	NaN	NaN	NaN	NaN	NaN	NaN	NaN	NaN	NaN	NaN	NaN	NaN	NaN	NaN	NaN	NaN	NaN	NaN	NaN	NaN
52	0.51	-1031.38977	1672.67529	275.68369	-900.4884	1656.8501	282.02603	-1040.2406	1619.28442	408.8476	-911.36688	1609.12671	413.59601	-981.99585	1459.0249	413.17725	-974.29358	1130.5354	449.82745	-985.99829	1379.64819	304.14795	-996.18768	1204.15442	266.46262	-898.18878	1288.94495	483.1705	-1145.46106	1413.78052	366.74429	-1212.59937	1208.99878	373.8013	-1220.26062	1095.55273	377.10519	-1244.43298	949.3974	343.31384	-1211.97766	843.76141	263.29819	-1238.17944	830.61182	328.49658	-1247.65869	757.04126	276.4877	-822.57971	1412.41272	340.68405	-731.98346	1215.03784	376.80338	-719.19904	1093.24048	368.40472	-703.82458	975.07159	345.53671	-739.66315	841.27209	278.01096	-697.34839	838.31293	329.77057	-697.22272	765.79456	287.48575	-1088.02271	965.89276	278.35419	-868.2381	976.49768	271.36453	-1056.44324	993.83411	434.75986	-888.58765	1003.80377	423.58896	-1148.04529	648.9646	309.98508	-1134.42981	490.05365	274.63818	-1115.73608	326.52432	453.91672	-1072.72424	208.22765	577.12274	-1021.93036	223.61145	610.43359	-1082.99231	82.94202	505.18732	-807.62927	643.13739	321.58582	-832.2655	518.0719	314.58478	-834.60419	253.46907	360.73361	-883.08984	66.90605	369.94058	-929.10303	42.84327	408.49835	-882.92853	34.53657	216.92429	-975.90442	1709.59302	378.30679	NaN	NaN	NaN	NaN	NaN	NaN	NaN	NaN	NaN	NaN	NaN	NaN	NaN	NaN	NaN	NaN	NaN	NaN	NaN	NaN	NaN	NaN	NaN	NaN
